<?xml version="1.0" encoding="utf-8"?>
<!-- Generator: Adobe Illustrator 27.6.1, SVG Export Plug-In . SVG Version: 6.00 Build 0)  -->
<svg version="1.1" id="Layer_1" xmlns="http://www.w3.org/2000/svg" xmlns:xlink="http://www.w3.org/1999/xlink" x="0px" y="0px"
	 viewBox="0 0 491 69.3" style="enable-background:new 0 0 491 69.3;" xml:space="preserve">
<style type="text/css">
	.st0{fill:#FFFFFF;}
	.st1{fill:#E6007A;}
</style>
<g>
	<g>
		<g>
			<path class="st0" d="M100.6,10.3c-3.8,0-7.4,0.5-8.9,0.9c-2.2,0.6-2.7,1.6-3.1,3.5L80,54.4c-0.1,0.8-0.3,1.5-0.3,2.2
				c0,2,1.3,3.2,3.4,3.2c2.3,0,3.3-1.5,3.7-3.8l2.4-11.3c1.7,0.2,3.9,0.4,7.1,0.4c14,0,22.7-7.6,22.7-19
				C119.1,16.1,112.1,10.3,100.6,10.3z M96,38.6c-2.2,0-3.9-0.1-5.4-0.3l4.5-21.1c1.4-0.2,3.5-0.5,5.7-0.5c7.4,0,11.2,3.5,11.2,9.3
				C112,33.6,106.6,38.6,96,38.6L96,38.6z"/>
			<path class="st0" d="M321.1,46.8c-1.1,0-1.9,0.7-3.3,2.2c-2.5,2.6-4.1,4-6,4c-1.8,0-2.7-1.4-2.7-3.7c0-1.3,0.3-2.8,0.6-4.5
				l2.5-11.8h7.5c2.4,0,3.8-1.4,3.8-3.8c0-1.4-0.9-2.4-2.9-2.4h-7l1.2-5.5c0.1-0.8,0.3-1.6,0.3-2.2c0-1.9-1.3-3.3-3.4-3.3
				c-2.2,0-3.2,1.5-3.7,3.8l-1.6,7.2h-3.2c-2.4,0-3.9,1.4-3.9,3.8c0,1.4,0.9,2.4,3,2.4h2.8l-2.5,11.6c-0.3,1.3-0.6,3.4-0.6,5.6
				c0,5.5,2.8,9.5,8.9,9.5c3.5,0,6.6-1.8,9-3.9c2.3-2,4-4.5,4-6.2C323.9,48,322.7,46.8,321.1,46.8z"/>
			<path class="st0" d="M165.4,14.3c0-2-1.4-3.3-3.5-3.3c-2.2,0-3.2,1.5-3.7,3.8l-8.5,39.3c-0.2,0.8-0.3,1.5-0.3,2.2
				c0,2,1.4,3.2,3.4,3.2c2.3,0,3.3-1.5,3.8-3.8l8.5-39.3C165.2,15.7,165.4,15,165.4,14.3z"/>
			<path class="st0" d="M286.3,26.1c-10.8,0-18.2,10.8-18.2,21c0,0.2,0,0.4,0,0.6c-1.7,2.6-3.9,5.3-5.4,5.3c-1.1,0-1.5-1-1.5-2.6
				c0-1.9,0.5-5.1,1.1-7.9l5.6-26c0.1-0.8,0.3-1.5,0.3-2.2c0-2-1.3-3.3-3.4-3.3c-2.3,0-3.2,1.5-3.7,3.8l-3,14.1
				c-1.6-1.7-4-2.8-7.6-2.8c-7.2,0-14.4,5.5-17.2,14c-3.1,8-5.9,12.8-8.1,12.8c-0.8,0-1.3-0.7-1.3-1.8c0-3.4,1.9-11.6,2.7-15.6
				c0.3-1.5,0.4-2.1,0.4-3c0-3-4.9-6.5-11.4-6.5c-7.4,0-14.2,4.7-17.5,11.7c-5,8.9-9.6,15.2-11.9,15.2c-1,0-1.4-1.3-1.6-2.5
				l-1.7-9.3l10.4-8.5c0.9-0.8,2.2-2,2.2-3.5c0-1.8-1.2-3-3-3c-1.4,0-2.5,0.8-3.7,1.8l-15.6,12.9l5.2-24.2c0.1-0.8,0.3-1.5,0.3-2.2
				c0-2-1.4-3.3-3.5-3.3c-2.2,0-3.2,1.5-3.7,3.8L163,54.2c-0.2,0.8-0.3,1.5-0.3,2.2c0,2,1.4,3.2,3.4,3.2c2.3,0,3.3-1.5,3.8-3.8
				l1.1-5.1l6.4-5.1l1.6,7.8c0.6,3.1,2.2,6.2,6.4,6.2s7.5-3.8,10.8-9c1,5.4,4.8,9,10.2,9c5.3,0,9-3.2,11.4-7.4v0.1
				c0,4.4,2.2,7.3,6.2,7.3c3.6,0,6.5-2.1,9.1-6.7c1.5,4,4.8,6.7,9.5,6.7c5.5,0,9.4-3.3,11.9-7.9v0.4c0,4.9,2.4,7.5,6.4,7.5
				c3.5,0,6.5-2,9.1-5.4c1.9,3.3,5.4,5.4,10.1,5.4c10.8,0,18.2-10.8,18.2-21.1C298.2,31.3,293.8,26.1,286.3,26.1z M218.8,39.8
				c-2,8.5-6.2,13.3-10.9,13.3c-3.2,0-4.9-2.4-4.9-6.1c0-7.2,5.2-14.9,12.2-14.9c2.1,0,3.7,0.6,5.1,1.5L218.8,39.8z M256.5,36.3
				c-2.2,10-7.1,16.9-12.5,16.9c-3,0-4.7-2.3-4.7-6.1c0-7.2,5-14.8,11.7-14.8c2.6,0,4.5,0.9,6,2L256.5,36.3z M280.8,53.1
				c-3.9,0-5.6-2.8-5.6-6.4c0-6.6,4.5-14.1,10.2-14.1c3.9,0,5.6,2.8,5.6,6.4C291,45.7,286.5,53.1,280.8,53.1z"/>
			<path class="st0" d="M135.9,26.1c-10.8,0-18.2,10.8-18.2,21c0,7.3,4.4,12.5,11.9,12.5c10.8,0,18.2-10.8,18.2-21.1
				C147.8,31.3,143.4,26.1,135.9,26.1z M130.5,53.1c-3.9,0-5.6-2.8-5.6-6.4c0-6.6,4.5-14.1,10.2-14.1c3.9,0,5.6,2.8,5.6,6.4
				C140.7,45.7,136.1,53.1,130.5,53.1z"/>
		</g>
		<ellipse class="st1" cx="32.6" cy="7.3" rx="12.5" ry="7.3"/>
		<ellipse class="st1" cx="32.6" cy="62" rx="12.5" ry="7.3"/>
		<ellipse transform="matrix(0.5 -0.866 0.866 0.5 -13.6772 18.2078)" class="st1" cx="8.9" cy="20.9" rx="12.5" ry="7.3"/>
		<ellipse transform="matrix(0.5 -0.866 0.866 0.5 -13.6858 72.8775)" class="st1" cx="56.3" cy="48.3" rx="12.5" ry="7.3"/>
		<ellipse transform="matrix(0.866 -0.5 0.5 0.866 -22.9531 10.9145)" class="st1" cx="8.9" cy="48.3" rx="7.3" ry="12.5"/>
		<ellipse transform="matrix(0.866 -0.5 0.5 0.866 -2.9457 30.9739)" class="st1" cx="56.3" cy="21" rx="7.3" ry="12.5"/>
	</g>
	<g>
		<path class="st1" d="M459.5,67.5H344.4c-4.2,0-7.4-3.9-6.5-8l8.2-38.9c2.2-11,11.9-18.8,23.1-18.8h115.1c4.2,0,7.4,3.9,6.5,8
			l-8.2,38.9C480.3,59.7,470.7,67.5,459.5,67.5z"/>
		<path class="st0" d="M451.1,62H347c-2,0-3.5-1.8-3.1-3.8l7.6-36.4c1.8-8.5,9.3-14.5,17.9-14.5h104.1c2,0,3.5,1.8,3.1,3.8L469,47.5
			C467.3,55.9,459.8,62,451.1,62z"/>
		<g>
			<g>
				<path class="st1" d="M373,52.7c-0.1,0-2.7,0-3.1,0c-0.5,0-1.1,0-1.1,0c-2.4-0.1-4.7-1.2-6.1-2.9c-1.5-1.9-2.1-4.3-1.6-6.6
					l4.2-19.7c0.3-1.2,1.3-2,2.5-2c0.2,0,2.4,0,2.5,0.1c1.4,0.3,2.2,1.6,1.9,3L368,44.2c-0.2,0.8,0,1.7,0.6,2.4
					c0.5,0.7,1.4,1.1,2.2,1.1c1.3,0,2.5-0.9,2.8-2.3l5.7-26.8c0.3-1.2,1.3-2,2.5-2c0.2,0,2.5,0,2.7,0.1c1.4,0.3,2.2,1.6,1.9,3
					l-5.7,26.8C379.9,50.1,376.7,52.7,373,52.7z"/>
			</g>
			<g>
				<path class="st1" d="M384,52.7c-2.4,0-6.6-1.1-8.2-2.9c-1.5-1.9-2.1-4.3-1.6-6.6l5.2-24.6c0.3-1.2,1.3-2,2.5-2
					c0.2,0,2.4,0,2.5,0.1c1.4,0.3,2.2,1.6,1.9,3l-5.2,24.6c-0.2,0.8,0,1.7,0.6,2.4c0.5,0.7,1.4,1.1,2.2,1.1c1.3,0,2.5-0.9,2.8-2.3
					l5.7-26.8c0.3-1.2,1.3-2,2.5-2c0.2,0,2.4,0,2.5,0.1c1.4,0.3,2.2,1.6,1.9,3l-5.7,26.8c-0.7,3.5-4.2,6-7.7,6.2
					C385.8,52.7,384.1,52.7,384,52.7z"/>
			</g>
			<g>
				<path class="st1" d="M406.9,25.6h2.4c1.5,0,2.6,1.4,2.3,2.8l-4.7,22.2c-0.3,1.2-1.3,2-2.5,2c-0.2,0-2.4,0-2.5-0.1
					c-1.4-0.3-2.2-1.6-1.9-3l4.7-22.1C404.8,26.4,405.8,25.6,406.9,25.6z"/>
				<path class="st1" d="M413.4,19.6L413.4,19.6c-0.2,1.1-1.2,1.9-2.3,1.9h-2.4c-1.5,0-2.6-1.4-2.3-2.8v-0.1c0.2-1.2,1.3-2,2.5-2
					c0.2,0,2.4,0,2.5,0.1C412.9,16.9,413.7,18.3,413.4,19.6z"/>
			</g>
			<g>
				<path class="st1" d="M451,25.6h2.4c1.5,0,2.6,1.4,2.3,2.8L451,50.6c-0.2,1.2-1.3,2-2.5,2c-0.2,0-2.4,0-2.5-0.1
					c-1.4-0.3-2.2-1.6-1.9-3l4.7-22.1C448.9,26.4,449.9,25.6,451,25.6z"/>
				<path class="st1" d="M457.6,19.6L457.6,19.6c-0.2,1.1-1.2,1.9-2.3,1.9h-2.4c-1.5,0-2.6-1.4-2.3-2.8v-0.1c0.3-1.2,1.3-2,2.5-2
					c0.2,0,2.4,0,2.5,0.1C457,16.9,457.9,18.3,457.6,19.6z"/>
			</g>
			<g>
				<path class="st1" d="M418.4,52.7c-0.2,0-2.4,0-2.5-0.1c-1.4-0.3-2.2-1.6-1.9-3l6.6-31.1c0.3-1.2,1.3-2,2.5-2
					c0.2,0,2.4,0,2.5,0.1c1.4,0.3,2.2,1.6,1.9,3l-6.6,31.1C420.6,51.9,419.5,52.7,418.4,52.7z"/>
			</g>
			<g>
				<path class="st1" d="M424.2,34.7c-0.7,0-3.4-0.3-3.9-0.8c-0.9-1-0.9-2.6,0.1-3.6l14.2-13.1c0.5-0.5,1.2-0.7,1.8-0.7
					c0,0,2.2,0,4.6,0c1.3,0,1.9,1.6,1,2.5c-0.8,0.8-1.6,1.5-2,1.9L425.9,34C425.5,34.5,424.9,34.7,424.2,34.7z"/>
			</g>
			<g>
				<path class="st1" d="M434.5,52.7c-0.2,0-2.4,0-2.5-0.1c-1.4-0.3-2.2-1.6-1.9-3l2.7-12.6c0.2-0.8-0.2-1.4-0.4-1.7
					c-0.2-0.3-0.7-0.7-1.5-0.7h-8.6c-1.4,0-2.5-1.1-2.5-2.5s1.1-2.5,2.5-2.5h8.6h2c2.1,0,4.8,0.9,6.1,2.6c1.3,1.7,1.2,3.8,0.7,5.9
					L437,50.7C436.7,51.9,435.7,52.7,434.5,52.7z"/>
			</g>
		</g>
	</g>
</g>
</svg>
