<?xml version="1.0" encoding="utf-8"?>
<!-- Generator: Adobe Illustrator 27.6.1, SVG Export Plug-In . SVG Version: 6.00 Build 0)  -->
<svg version="1.1" id="Layer_1" xmlns="http://www.w3.org/2000/svg" xmlns:xlink="http://www.w3.org/1999/xlink" x="0px" y="0px"
	 viewBox="0 0 495.3 69.3" style="enable-background:new 0 0 495.3 69.3;" xml:space="preserve">
<style type="text/css">
	.st0{fill:#E6007A;}
</style>
<g>
	<g>
		<g>
			<path d="M100.6,10.3c-3.8,0-7.4,0.5-8.9,0.9c-2.2,0.6-2.7,1.6-3.1,3.5L80,54.4c-0.1,0.8-0.3,1.5-0.3,2.2c0,2,1.3,3.2,3.4,3.2
				c2.3,0,3.3-1.5,3.7-3.8l2.4-11.3c1.7,0.2,3.9,0.4,7.1,0.4c14,0,22.7-7.6,22.7-19C119.1,16.1,112.1,10.3,100.6,10.3z M96,38.6
				c-2.2,0-3.9-0.1-5.4-0.3l4.5-21.1c1.4-0.2,3.5-0.5,5.7-0.5c7.4,0,11.2,3.5,11.2,9.3C112,33.6,106.6,38.6,96,38.6L96,38.6z"/>
		</g>
		<g>
			<path d="M321.1,46.8c-1.1,0-1.9,0.7-3.3,2.2c-2.5,2.6-4.1,4-6,4c-1.8,0-2.7-1.4-2.7-3.7c0-1.3,0.3-2.8,0.6-4.5l2.5-11.8h7.5
				c2.4,0,3.8-1.4,3.8-3.8c0-1.4-0.9-2.4-2.9-2.4h-7l1.2-5.5c0.1-0.8,0.3-1.6,0.3-2.2c0-1.9-1.3-3.3-3.4-3.3c-2.2,0-3.2,1.5-3.7,3.8
				l-1.6,7.2h-3.2c-2.4,0-3.9,1.4-3.9,3.8c0,1.4,0.9,2.4,3,2.4h2.8l-2.5,11.6c-0.3,1.3-0.6,3.4-0.6,5.6c0,5.5,2.8,9.5,8.9,9.5
				c3.5,0,6.6-1.8,9-3.9c2.3-2,4-4.5,4-6.2C323.9,48,322.7,46.8,321.1,46.8z"/>
		</g>
		<g>
			<path d="M165.4,14.3c0-2-1.4-3.3-3.5-3.3c-2.2,0-3.2,1.5-3.7,3.8l-8.5,39.3c-0.2,0.8-0.3,1.5-0.3,2.2c0,2,1.4,3.2,3.4,3.2
				c2.3,0,3.3-1.5,3.8-3.8l8.5-39.3C165.2,15.7,165.4,15,165.4,14.3z"/>
		</g>
		<g>
			<path d="M286.3,26.1c-10.8,0-18.2,10.8-18.2,21c0,0.2,0,0.4,0,0.6c-1.7,2.6-3.9,5.3-5.4,5.3c-1.1,0-1.5-1-1.5-2.6
				c0-1.9,0.5-5.1,1.1-7.9l5.6-26c0.1-0.8,0.3-1.5,0.3-2.2c0-2-1.3-3.3-3.4-3.3c-2.3,0-3.2,1.5-3.7,3.8l-3,14.1
				c-1.6-1.7-4-2.8-7.6-2.8c-7.2,0-14.4,5.5-17.2,14c-3.1,8-5.9,12.8-8.1,12.8c-0.8,0-1.3-0.7-1.3-1.8c0-3.4,1.9-11.6,2.7-15.6
				c0.3-1.5,0.4-2.1,0.4-3c0-3-4.9-6.5-11.4-6.5c-7.4,0-14.2,4.7-17.5,11.7c-5,8.9-9.6,15.2-11.9,15.2c-1,0-1.4-1.3-1.6-2.5
				l-1.7-9.3l10.4-8.5c0.9-0.8,2.2-2,2.2-3.5c0-1.8-1.2-3-3-3c-1.4,0-2.5,0.8-3.7,1.8l-15.6,12.9l5.2-24.2c0.1-0.8,0.3-1.5,0.3-2.2
				c0-2-1.4-3.3-3.5-3.3c-2.2,0-3.2,1.5-3.7,3.8l-8.5,39.3c-0.2,0.8-0.3,1.5-0.3,2.2c0,2,1.4,3.2,3.4,3.2c2.3,0,3.3-1.5,3.8-3.8
				l1.1-5.1l6.4-5.1l1.6,7.8c0.6,3.1,2.2,6.2,6.4,6.2c4.2,0,7.5-3.8,10.8-9c1,5.4,4.8,9,10.2,9c5.3,0,9-3.2,11.4-7.4v0.1
				c0,4.4,2.2,7.3,6.2,7.3c3.6,0,6.5-2.1,9.1-6.7c1.5,4,4.8,6.7,9.5,6.7c5.5,0,9.4-3.3,11.9-7.9v0.4c0,4.9,2.4,7.5,6.4,7.5
				c3.5,0,6.5-2,9.1-5.4c1.9,3.3,5.4,5.4,10.1,5.4c10.8,0,18.2-10.8,18.2-21.1C298.2,31.3,293.8,26.1,286.3,26.1z M218.8,39.8
				c-2,8.5-6.2,13.3-10.9,13.3c-3.2,0-4.9-2.4-4.9-6.1c0-7.2,5.2-14.9,12.2-14.9c2.1,0,3.7,0.6,5.1,1.5L218.8,39.8z M256.5,36.3
				c-2.2,10-7.1,16.9-12.5,16.9c-3,0-4.7-2.3-4.7-6.1c0-7.2,5-14.8,11.7-14.8c2.6,0,4.5,0.9,6,2L256.5,36.3z M280.8,53.1
				c-3.9,0-5.6-2.8-5.6-6.4c0-6.6,4.5-14.1,10.2-14.1c3.9,0,5.6,2.8,5.6,6.4C291,45.7,286.5,53.1,280.8,53.1z"/>
		</g>
		<g>
			<path d="M135.9,26.1c-10.8,0-18.2,10.8-18.2,21c0,7.3,4.4,12.5,11.9,12.5c10.8,0,18.2-10.8,18.2-21.1
				C147.8,31.3,143.4,26.1,135.9,26.1z M130.5,53.1c-3.9,0-5.6-2.8-5.6-6.4c0-6.6,4.5-14.1,10.2-14.1c3.9,0,5.6,2.8,5.6,6.4
				C140.7,45.7,136.1,53.1,130.5,53.1z"/>
		</g>
		<g>
			<ellipse class="st0" cx="32.6" cy="7.3" rx="12.5" ry="7.3"/>
		</g>
		<g>
			<ellipse class="st0" cx="32.6" cy="62" rx="12.5" ry="7.3"/>
		</g>
		<g>
			<ellipse transform="matrix(0.5 -0.866 0.866 0.5 -13.7109 18.1563)" class="st0" cx="8.9" cy="21" rx="12.5" ry="7.3"/>
		</g>
		<g>
			<ellipse transform="matrix(0.5 -0.866 0.866 0.5 -13.711 72.897)" class="st0" cx="56.3" cy="48.3" rx="12.5" ry="7.3"/>
		</g>
		<g>
			<ellipse transform="matrix(0.866 -0.5 0.5 0.866 -22.9726 10.9094)" class="st0" cx="8.9" cy="48.3" rx="7.3" ry="12.5"/>
		</g>
		<g>
			<ellipse transform="matrix(0.866 -0.5 0.5 0.866 -2.9369 30.9476)" class="st0" cx="56.3" cy="21" rx="7.3" ry="12.5"/>
		</g>
	</g>
	<g>
		<g>
			<g>
				<path class="st0" d="M373,58.5c-7.5,0-13.6-6.1-13.6-13.6V15.8h6v29.1c0,4.2,3.4,7.6,7.6,7.6s7.6-3.4,7.6-7.6V15.8h6v29.1
					C386.6,52.4,380.5,58.5,373,58.5z"/>
			</g>
			<g>
				<path class="st0" d="M394.3,58.5c-7.5,0-13.6-6.1-13.6-13.6V15.8h6v29.1c0,4.2,3.4,7.6,7.6,7.6s7.6-3.4,7.6-7.6V15.8h6v29.1
					C407.9,52.4,401.8,58.5,394.3,58.5z"/>
			</g>
		</g>
		<g>
			<rect x="423.5" y="15.8" class="st0" width="6" height="42.5"/>
		</g>
		<g>
			<rect x="486.3" y="33.6" class="st0" width="6" height="24.8"/>
		</g>
		<g>
			<rect x="444" y="15.8" class="st0" width="6" height="42.5"/>
		</g>
		<g>
			<path class="st0" d="M451.7,36.6H447v-6h4.7c8.1,0,14.8-6.6,14.8-14.7h6C472.5,27.3,463.2,36.6,451.7,36.6z"/>
		</g>
		<g>
			<path class="st0" d="M472.5,58.4h-6v-7c0-8.1-6.6-14.8-14.8-14.8H447v-6h4.7c11.4,0,20.8,9.3,20.8,20.7V58.4z"/>
		</g>
	</g>
	<g>
		<circle class="st0" cx="489.3" cy="21.8" r="6"/>
	</g>
</g>
</svg>
