<?xml version="1.0" encoding="utf-8"?>
<!-- Generator: Adobe Illustrator 23.0.3, SVG Export Plug-In . SVG Version: 6.00 Build 0)  -->
<svg version="1.1" id="Layer_1" xmlns="http://www.w3.org/2000/svg" xmlns:xlink="http://www.w3.org/1999/xlink" x="0px" y="0px"
	 viewBox="0 0 600 300" style="enable-background:new 0 0 600 300;" xml:space="preserve">
<style type="text/css">
	.st0{fill:#E6007A;}
</style>
<g>
	<g>
		<path d="M182.9,141.8c-8.5,0-15.5,3.5-21.1,10.6c-5.6,7-8.4,15.3-8.4,24.6c0,6.4,1.8,11.6,5.3,15.6c3.5,4,8.2,6,14.1,6
			c7.9,0,14.6-3.3,20.2-9.9c3.7-4.8,5.2-7.7,6-9.8c2.1-5.1,3.1-10.4,3.1-15.7c0-6.3-1.5-11.4-4.5-15.4
			C194.6,143.8,189.6,141.8,182.9,141.8z M183.2,184c-2.9,2.9-6.3,4.4-10.1,4.4c-2.8,0-5.1-1-6.7-3c-1.6-2-2.4-4.8-2.4-8.3
			c0-7,1.7-12.9,5.2-17.7c3.4-4.8,7.8-7.2,13.1-7.2c6,0,8.9,3.6,8.9,10.9C191.3,173.8,186.2,181,183.2,184z M504.2,168.1
			c-2.5-0.8-5.3,0.4-6.3,2.9c-4.6,11.5-10.3,17.3-17.3,17.3c-3.6,0-5.4-3.1-5.4-9.2c0-3.4,1-10.1,3-20l1.5-7h14.2
			c2.4,0,4.6-1.7,5-4.1c0.7-3.2-1.8-6.2-5-6.2H482l2.5-11.6c0.7-3.3-1.8-6.4-5.2-6.4c-2.5,0-4.6,1.7-5.2,4.2l-3,13.8h-33.1l0,0
			c0,0-0.1,0-0.1,0c-8.5,0-15.5,3.5-21.1,10.6c-5.6,7-8.4,15.3-8.4,24.6c0,2.6,0.3,4.9,0.9,7.1c-2.7,2.8-5.6,4.2-8.7,4.2
			c-2.1,0-3.6-0.6-4.5-1.8c-0.9-1.2-1.4-3.2-1.4-6c0-4,0.8-9.9,2.5-17.7l8.7-40.2c0.7-3.3-1.8-6.4-5.2-6.4c-2.5,0-4.7,1.8-5.2,4.2
			l-5.2,24.5c-3.7-2.1-7.5-3.1-11.6-3.1c-8.6,0-15.8,3.3-21.6,10c-5.7,6.7-8.6,15.1-8.6,25.2c0,3.2,0.4,6,1.2,8.6
			c-2.3,1.9-4.7,2.8-7.3,2.8c-2.1,0-3.6-0.6-4.7-1.8c-1-1.2-1.5-3.2-1.5-6c0-2.5,0.5-6.4,1.6-11.9c0.6-3.1-1.6-6.1-4.8-6.4
			c-2.6-0.3-5.1,1.4-5.8,3.9c-2,6.9-4.5,12.2-7.3,15.8c-3.4,4.3-7.1,6.5-11,6.5c-2.3,0-4.2-1.1-5.7-3.3c-1.4-2.2-2.1-5.1-2.1-8.6
			c0-7.1,1.7-13,5.2-17.5c3.5-4.6,8-6.9,13.6-6.9c2.8,0,5.6,0.6,8,1.6c1.5,0.6,3.3,0.6,4.7-0.3c3.6-2.2,3.2-7.6-0.6-9.1
			c-2.1-0.9-3.2-1.1-4.1-1.3c-2.4-0.6-5.4-1.1-7.8-1.1c-8.5,0.1-15.7,3.4-21.4,10c-3.1,3.6-5.4,7.7-6.8,12.3c0,0,0,0,0,0
			c-5,16.2-11.6,24.3-19.5,24.3c-2.7,0-4.7-0.9-5.9-2.6c-1.3-1.7-1.9-3.9-1.9-6.5c0-0.9,0-1.6,0.1-2.1c5-2,9.1-5.1,12.1-9.2
			s4.6-8.7,4.6-13.6c0-8.3-4.5-12.4-13.6-12.4c-6.4,0-12,2.3-17,6.9l5.6-26.2c0.7-3.3-1.8-6.3-5.1-6.3c-2.5,0-4.6,1.7-5.1,4.2
			l-15.4,72c-0.7,3.3,1.8,6.3,5.1,6.3h0c2.5,0,4.6-1.7,5.1-4.1l4.8-22c0.8-2.8,1.9-5.7,3.4-8.5c1.5-2.8,3.8-5.5,7-8
			c3.1-2.6,6.6-3.8,10.5-3.8c2.6,0,3.9,1.3,3.9,4c0,3-1.7,6-5,8.8c-3.3,2.8-6.9,4.6-10.7,5.2c-0.3,3.2-0.5,5.4-0.5,6.8
			c0,6.7,1.5,12,4.5,15.9c3,3.9,7.4,5.8,13.3,5.8c6.9,0,12.9-3,18-8.9c0.7-0.8,1.3-1.6,2-2.5c0.8,2,1.8,3.8,3.1,5.3
			c3.3,4,7.7,6,13.3,6c7.1,0,13.1-3.4,18-10.3c2.1,6.9,7.2,10.3,15.5,10.3c4.7,0,8.9-1.5,12.8-4.5c3.1,3,7.1,4.5,11.9,4.5
			c7.1,0,13.1-3.4,18-10.3c2.1,6.9,7.2,10.3,15.5,10.3c5.3,0,10-1.8,14.1-5.4c3.5,3.6,7.9,5.4,13.5,5.4c7.9,0,14.6-3.3,20.2-9.9
			c3.7-4.8,5.2-7.7,6-9.8c2.1-5.1,3.1-10.4,3.1-15.7c0-4.2-0.7-7.9-2-11.1h13.7l-1.3,6c-2.2,10.3-3.3,17.3-3.3,21
			c0,13,5.3,19.5,15.8,19.5c11.7,0,20.7-7.9,27.1-23.8C508.4,172.2,507,169.1,504.2,168.1z M386.6,161.7c-1.9,9.1-4.7,15.8-8.2,20.1
			s-7.3,6.5-11.3,6.5c-2.3,0-4.2-1.1-5.7-3.3c-1.4-2.2-2.1-5.1-2.1-8.6c0-7.1,1.7-13,5.2-17.5c3.5-4.6,8-6.9,13.6-6.9
			c3,0,6.2,1.3,9.7,4L386.6,161.7z M444.4,174.3c0,0-3.1,6.7-6,9.7c-2.9,2.9-6.3,4.4-10.1,4.4c-2.8,0-5.1-1-6.7-3
			c-1.6-2-2.4-4.8-2.4-8.3c0-7,1.7-12.9,5.2-17.7s7.8-7.2,13.1-7.2c6,0,8.9,3.6,8.9,10.9C446.4,166.7,445.8,170.4,444.4,174.3z
			 M227.8,116.2c-2.5,0-4.6,1.7-5.1,4.2l-15.4,72c-0.7,3.3,1.8,6.3,5.1,6.3c2.5,0,4.6-1.7,5.1-4.1l15.5-72
			C233.7,119.3,231.2,116.2,227.8,116.2z M117.5,100.3c-20.8,0-37.8,16.9-37.8,37.8c0,4.2,0.7,8.3,2,12.3c0.9,2.7,3.9,4.2,6.7,3.3
			c2.7-0.9,4.2-3.9,3.3-6.7c-1.1-3.1-1.6-6.4-1.5-9.7c0.4-14.1,11.8-25.7,25.9-26.4c15.7-0.8,28.7,11.7,28.7,27.2
			c0,14.5-11.4,26.4-25.7,27.2c0,0-5.3,0.3-7.9,0.7c-1.3,0.2-2.3,0.4-3,0.5c-0.3,0.1-0.6-0.2-0.5-0.5l0.9-4.4l4.8-22.5
			c0.6-2.8-1.2-5.6-4-6.2c-2.8-0.6-5.6,1.2-6.2,4c0,0-11.8,55-11.9,55.6c-0.6,2.8,1.2,5.6,4,6.2c2.8,0.6,5.6-1.2,6.2-4
			c0.1-0.6,1.7-7.9,1.7-7.9c1.2-5.6,5.8-9.7,11.2-10.4c1.2-0.2,5.9-0.5,5.9-0.5c19.5-1.5,34.9-17.8,34.9-37.7
			C155.3,117.2,138.4,100.3,117.5,100.3z"/>
	</g>
</g>
<path class="st0" d="M515.3,187.3c-3.4-0.7-6.7,1.4-7.5,4.9c-0.7,3.4,1.4,6.8,4.9,7.5s6.8-1.4,7.5-4.9
	C520.8,191.3,518.7,188,515.3,187.3z"/>
</svg>
