<svg id="polkadot-logo" xmlns="http://www.w3.org/2000/svg" width="176.871px" height="42px" viewBox="0 0 185.76 42.01">
    <path fill="#ffffff" d="M43.5,17.55A10.82,10.82,0,0,0,34.62,22a16,16,0,0,0-3.57,10.35A9.6,9.6,0,0,0,33.29,39a7.45,7.45,0,0,0,5.94,2.52,10.78,10.78,0,0,0,8.53-4.2A16.61,16.61,0,0,0,51.61,26.5,10.55,10.55,0,0,0,49.72,20C48.39,18.39,46.29,17.55,43.5,17.55Zm.14,17.76a6.06,6.06,0,0,1-4.27,1.82,3.34,3.34,0,0,1-2.8-1.26,5.31,5.31,0,0,1-1-3.49,12.41,12.41,0,0,1,2.17-7.48,6.45,6.45,0,0,1,5.53-3q3.76,0,3.77,4.61A12.66,12.66,0,0,1,43.64,35.31ZM179,28.6a2.13,2.13,0,0,0-2.66,1.19c-1.95,4.9-4.33,7.34-7.27,7.34-1.54,0-2.31-1.33-2.31-3.84A54.46,54.46,0,0,1,168,24.83l.63-2.94h6a2.1,2.1,0,0,0,2.09-1.75,2.16,2.16,0,0,0-2.09-2.59h-5l1-4.89a2.26,2.26,0,0,0-2.17-2.73,2.18,2.18,0,0,0-2.17,1.75L165,17.48H151A10.83,10.83,0,0,0,142.1,22a16,16,0,0,0-3.57,10.35,13,13,0,0,0,.35,3,5,5,0,0,1-3.64,1.75,2.18,2.18,0,0,1-1.88-.77,4.42,4.42,0,0,1-.56-2.51,39.55,39.55,0,0,1,1-7.49l3.63-16.92a2.22,2.22,0,1,0-4.33-1L131,18.74a9.38,9.38,0,0,0-4.9-1.33,11.57,11.57,0,0,0-9.09,4.2,16,16,0,0,0-3.63,10.63,11.94,11.94,0,0,0,.49,3.63,4.87,4.87,0,0,1-3.08,1.19,2.43,2.43,0,0,1-2-.77,3.87,3.87,0,0,1-.63-2.51,26.68,26.68,0,0,1,.7-5,2.3,2.3,0,0,0-2-2.73,2.22,2.22,0,0,0-2.44,1.68,19,19,0,0,1-3.08,6.65,6,6,0,0,1-4.62,2.72,2.8,2.8,0,0,1-2.37-1.4A6.93,6.93,0,0,1,93.43,32a11.62,11.62,0,0,1,2.16-7.34,6.82,6.82,0,0,1,5.74-2.94,8.73,8.73,0,0,1,3.36.7,2,2,0,0,0,2-.14,2.16,2.16,0,0,0-.28-3.85,9.33,9.33,0,0,0-1.74-.56,13.37,13.37,0,0,0-3.29-.49,11.64,11.64,0,0,0-9,4.2,13.53,13.53,0,0,0-2.87,5.17h0C87.34,33.64,84.55,37,81.19,37a2.89,2.89,0,0,1-2.52-1.12,4.31,4.31,0,0,1-.77-2.72,3.42,3.42,0,0,1,.07-.91,11.82,11.82,0,0,0,5.11-3.85,9.44,9.44,0,0,0,2-5.73c0-3.5-1.88-5.25-5.73-5.25a10,10,0,0,0-7.13,2.94l2.38-11a2.21,2.21,0,0,0-2.17-2.66,2.18,2.18,0,0,0-2.17,1.75l-6.5,30.35a2.2,2.2,0,0,0,2.16,2.66h0A2.18,2.18,0,0,0,68,39.65l2-9.3a18.85,18.85,0,0,1,1.4-3.57,10.79,10.79,0,0,1,2.94-3.35,6.57,6.57,0,0,1,4.4-1.61,1.48,1.48,0,0,1,1.68,1.68,5,5,0,0,1-2.1,3.7,8.87,8.87,0,0,1-4.54,2.17c-.14,1.33-.21,2.31-.21,2.87A11,11,0,0,0,75.52,39a6.54,6.54,0,0,0,5.6,2.45,9.75,9.75,0,0,0,7.62-3.78l.84-1a7.91,7.91,0,0,0,1.33,2.24,6.85,6.85,0,0,0,5.59,2.52c3,0,5.53-1.4,7.63-4.34.9,2.94,3,4.34,6.5,4.34A8.53,8.53,0,0,0,116,39.44a7,7,0,0,0,5,1.89c3,0,5.52-1.4,7.62-4.34.91,2.94,3,4.34,6.5,4.34a8.72,8.72,0,0,0,6-2.31,7.48,7.48,0,0,0,5.66,2.31,10.76,10.76,0,0,0,8.53-4.2,16.61,16.61,0,0,0,3.85-10.77,12.17,12.17,0,0,0-.84-4.68h5.81l-.56,2.52a53.62,53.62,0,0,0-1.4,8.88c0,5.45,2.24,8.25,6.64,8.25,5,0,8.74-3.36,11.4-10A2,2,0,0,0,179,28.6Zm-49.58-2.66c-.77,3.85-2,6.65-3.43,8.47s-3.07,2.72-4.75,2.72a2.82,2.82,0,0,1-2.38-1.4,6.93,6.93,0,0,1-.91-3.63,11.57,11.57,0,0,1,2.17-7.34,6.48,6.48,0,0,1,9.79-1.26Zm24.34,5.25a20.21,20.21,0,0,1-2.52,4.05,6,6,0,0,1-4.27,1.89,3.32,3.32,0,0,1-2.79-1.26,5.31,5.31,0,0,1-1-3.49,12.47,12.47,0,0,1,2.16-7.48,6.54,6.54,0,0,1,5.53-3q3.78,0,3.78,4.61A14.27,14.27,0,0,1,153.71,31.19ZM62.45,6.71a2.18,2.18,0,0,0-2.17,1.75l-6.5,30.35a2.2,2.2,0,0,0,2.16,2.66,2.18,2.18,0,0,0,2.17-1.75L64.62,9.37A2.24,2.24,0,0,0,62.45,6.71ZM15.94,0A16,16,0,0,0,0,15.94a16.38,16.38,0,0,0,.84,5.18,2.28,2.28,0,0,0,2.8,1.4A2.27,2.27,0,0,0,5,19.72a10.44,10.44,0,0,1-.62-4.06A11.5,11.5,0,1,1,16.57,27.48s-2.23.14-3.35.28A11.51,11.51,0,0,0,12,28a.15.15,0,0,1-.21-.21l.35-1.89,2.1-9.51a2.18,2.18,0,0,0-4.27-.91s-5,23.22-5,23.43a2.12,2.12,0,0,0,1.67,2.59,2.13,2.13,0,0,0,2.59-1.68c.07-.28.7-3.36.7-3.36A5.66,5.66,0,0,1,14.62,32c.48-.07,2.51-.21,2.51-.21A15.93,15.93,0,0,0,15.94,0Z"/>
    <path fill="#ffffff" d="M183.64,36.71a2.67,2.67,0,0,0-3.15,2.1,2.64,2.64,0,0,0,2.1,3.15,2.6,2.6,0,0,0,3.14-2.1A2.76,2.76,0,0,0,183.64,36.71Z"/>
</svg>
