<?xml version="1.0" encoding="UTF-8"?>
<svg id="Layer_1" xmlns="http://www.w3.org/2000/svg" version="1.1" viewBox="0 0 490.5 69.2">
  <!-- Generator: Adobe Illustrator 29.0.0, SVG Export Plug-In . SVG Version: 2.1.0 Build 186)  -->
  <defs>
    <style>
      .st0 {
        fill-rule: evenodd;
      }

      .st0, .st1 {
        fill: #fff;
      }

      .st2 {
        fill: #231f20;
      }

      .st3 {
        fill: #ff2670;
      }
    </style>
  </defs>
  <path class="st3" d="M459,67.4h-115.1c-4.2,0-7.4-3.9-6.5-8l8.2-38.9c2.2-11,11.9-18.8,23.1-18.8h115.1c4.2,0,7.4,3.9,6.5,8l-8.2,38.9c-2.3,11-11.9,18.8-23.1,18.8Z"/>
  <path class="st2" d="M450.6,61.9h-104.1c-2,0-3.5-1.8-3.1-3.8l7.6-36.4c1.8-8.5,9.3-14.5,17.9-14.5h104.1c2,0,3.5,1.8,3.1,3.8l-7.6,36.4c-1.7,8.4-9.2,14.5-17.9,14.5Z"/>
  <path class="st1" d="M372.5,52.6h-4.2c-2.4,0-4.7-1.2-6.1-2.9-1.5-1.9-2.1-4.3-1.6-6.6l4.2-19.7c.3-1.2,1.3-2,2.5-2s2.4,0,2.5.1c1.4.3,2.2,1.6,1.9,3l-4.2,19.6c-.2.8,0,1.7.6,2.4.5.7,1.4,1.1,2.2,1.1,1.3,0,2.5-.9,2.8-2.3l5.7-26.8c.3-1.2,1.3-2,2.5-2s2.5,0,2.7.1c1.4.3,2.2,1.6,1.9,3l-5.7,26.8c-.8,3.6-4,6.2-7.7,6.2Z"/>
  <path class="st1" d="M383.5,52.6c-2.4,0-6.6-1.1-8.2-2.9-1.5-1.9-2.1-4.3-1.6-6.6l5.2-24.6c.3-1.2,1.3-2,2.5-2s2.4,0,2.5.1c1.4.3,2.2,1.6,1.9,3l-5.2,24.6c-.2.8,0,1.7.6,2.4.5.7,1.4,1.1,2.2,1.1,1.3,0,2.5-.9,2.8-2.3l5.7-26.8c.3-1.2,1.3-2,2.5-2s2.4,0,2.5.1c1.4.3,2.2,1.6,1.9,3l-5.7,26.8c-.7,3.5-4.2,6-7.7,6.2,0-.1-1.8-.1-1.9-.1Z"/>
  <g>
    <path class="st1" d="M406.4,25.5h2.4c1.5,0,2.6,1.4,2.3,2.8l-4.7,22.2c-.3,1.2-1.3,2-2.5,2s-2.4,0-2.5,0c-1.4-.3-2.2-1.6-1.9-3l4.7-22.1c.1-1,1.1-1.8,2.2-1.8Z"/>
    <path class="st1" d="M412.9,19.5h0c-.2,1.1-1.2,1.9-2.3,1.9h-2.4c-1.5,0-2.6-1.4-2.3-2.8h0c.2-1.3,1.3-2.1,2.5-2.1s2.4,0,2.5.1c1.5.2,2.3,1.6,2,2.9Z"/>
  </g>
  <path class="st1" d="M450.5,25.5h2.4c1.5,0,2.6,1.4,2.3,2.8l-4.7,22.2c-.2,1.2-1.3,2-2.5,2s-2.4,0-2.5,0c-1.4-.3-2.2-1.6-1.9-3l4.7-22.1c.1-1,1.1-1.8,2.2-1.8Z"/>
  <path class="st1" d="M457.1,19.5h0c-.2,1.1-1.2,1.9-2.3,1.9h-2.4c-1.5,0-2.6-1.4-2.3-2.8h0c.3-1.3,1.3-2.1,2.5-2.1s2.4,0,2.5.1c1.4.2,2.3,1.6,2,2.9Z"/>
  <path class="st1" d="M417.9,52.6c-.2,0-2.4,0-2.5,0-1.4-.3-2.2-1.6-1.9-3l6.6-31.1c.3-1.2,1.3-2,2.5-2s2.4,0,2.5.1c1.4.3,2.2,1.6,1.9,3l-6.6,31.1c-.3,1.2-1.4,2-2.5,2Z"/>
  <path class="st1" d="M423.7,34.6c-.7,0-3.4-.3-3.9-.8-.9-1-.9-2.6.1-3.6l14.2-13.1c.5-.5,1.2-.7,1.8-.7h4.6c1.3,0,1.9,1.6,1,2.5-.8.8-1.6,1.5-2,1.9l-14.1,13.1c-.4.5-1,.7-1.7.7Z"/>
  <path class="st1" d="M434,52.6c-.2,0-2.4,0-2.5,0-1.4-.3-2.2-1.6-1.9-3l2.7-12.6c.2-.8-.2-1.4-.4-1.7-.2-.3-.7-.7-1.5-.7h-8.6c-1.4,0-2.5-1.1-2.5-2.5s1.1-2.5,2.5-2.5h10.6c2.1,0,4.8.9,6.1,2.6,1.3,1.7,1.2,3.8.7,5.9l-2.7,12.6c-.3,1.2-1.3,2-2.5,2Z"/>
  <g>
    <path class="st0" d="M85,59.4l3-14.5c1.7.2,3.9.4,7,.4,7.2,0,13-2,17-5.4,4.1-3.5,6.3-8.4,6.3-14.4s-1.1-7.4-3.1-10-5-4.5-8.7-5.5c-2.1-.6-4.6-.9-7.2-.9s-8.3.8-11.6,1.3h-.2l-10.5,49h8ZM94.6,38c-1.1,0-2,0-2.9,0-.8,0-1.5,0-2.2-.2l4.5-20.8c1.4-.2,3.4-.5,5.5-.5s2.4.1,3.5.3c2,.4,3.6,1.1,4.8,2.1,1.8,1.6,2.7,3.9,2.7,6.8s-1.3,6.8-4,9c-2.5,2.2-6.5,3.4-11.9,3.4Z"/>
    <path class="st1" d="M154.7,59.4l10.5-49.4h-7.9l-10.5,49.4h7.9Z"/>
    <path class="st0" d="M254.8,27.8l3.8-17.8h7.9l-7,32.4c-.6,2.8-1.2,6-1.2,7.9s.1,1.4.3,1.8c.1.2.2.3.4.4.1,0,.3,0,.5,0,.3,0,.7,0,1.1-.4.4-.3.9-.7,1.3-1.2.9-1,1.9-2.3,2.7-3.5v-.5c0-5.3,1.9-10.7,5.2-14.8,3.3-4.1,8-6.9,13.6-6.9s7,1.4,9.1,3.7c2.1,2.3,3.3,5.6,3.3,9.4,0,9-5.4,18.4-13.8,21.1-1.6.5-3.2.8-4.9.8s-3.3-.3-4.7-.8c-2.4-.9-4.3-2.4-5.6-4.5-1.6,2.1-3.4,3.6-5.5,4.5-1.2.5-2.4.8-3.7.8s-2.4-.3-3.4-.8c-2.1-1.1-3.3-3.3-3.4-6.5-1.8,3-4.2,5.3-7.4,6.5-1.4.5-2.8.8-4.4.8s-2.9-.3-4.1-.8c-2.5-1-4.5-3.1-5.6-5.7-1.7,2.8-3.6,4.7-5.7,5.7-1.1.5-2.3.8-3.5.8s-2.3-.3-3.2-.8c-2-1.1-3.1-3.3-3.3-6-1.7,2.7-3.9,4.9-6.9,6-1.3.5-2.8.8-4.4.8s-2.9-.3-4.1-.8c-1.5-.6-2.7-1.6-3.7-2.9-1.6,1.6-3.6,2.8-5.6,3.5-2.3.7-4.8.7-7.2-.2-2.4-1-4.3-2.9-5.5-5.4-.6-1.3-1.2-2.8-1.8-4.3-.2-.4-.3-.8-.5-1.2-.4-.9-.7-1.8-1.1-2.6-.8.2-1.7.3-2.5.4l-2.8,12.9h-8.2l10.6-49.6h8.2l-5.8,27.5c4.1-1.2,9.8-4.6,13.7-13l7.7,3.7c-3.6,7.8-8.6,12.5-13.5,15.3.4.8.7,1.6,1,2.3.2.5.4,1,.6,1.4.6,1.4,1.1,2.7,1.6,3.7.5.9,1,1.3,1.4,1.5s1,.3,1.8,0c1.6-.5,3.8-2.3,4.8-5.7l.8-3.4c.3-2.3.9-4.3,1.6-5.8,3.5-7.2,10.4-12.2,18.1-12.2s5.1.6,7.4,1.5c2.3.9,4.2,2.1,5.5,3.4h.1v.3c-.3,1.1-.5,2.4-.9,3.8-.5,2.3-1.2,5-1.7,7.5-.5,2.1-.9,4-1.2,5.7s-.5,3-.5,3.7.1.9.3,1.2c.2.2.4.4.7.4s1-.3,1.6-.8c.6-.6,1.2-1.4,1.9-2.5,1.4-2.2,2.8-5.5,4.4-9.6,2.9-8.8,10.3-14.6,17.7-14.6,3.5-.2,5.9.9,7.6,2.4h0ZM214.8,39.5l1.4-6.1c-1.4-.8-2.9-1.4-4.8-1.4-3.4,0-6.4,1.9-8.6,4.7-2.1,2.8-3.4,6.6-3.4,10.2s.4,3.3,1.2,4.3,2,1.6,3.4,1.6c2.3,0,4.5-1.2,6.3-3.4,2-2.2,3.5-5.6,4.5-9.9h0ZM253,35.9l.4-1.8c-1.4-1.1-3.3-1.9-5.7-1.9s-6.1,1.8-8.2,4.6c-2.1,2.8-3.3,6.5-3.3,10.1s.4,3.4,1.2,4.4,1.9,1.5,3.3,1.5c2.6,0,5.1-1.7,7.3-4.7,2.1-2.9,3.9-7.1,5-12.2h0ZM273.8,51.1c.8,1.1,2.1,1.8,4,1.8,2.7,0,5.2-1.8,7.1-4.5,1.8-2.7,3-6.2,3-9.6s-.4-3.4-1.2-4.5c-.8-1.1-2.1-1.8-4-1.8-2.7,0-5.2,1.8-7.1,4.6-1.8,2.7-3,6.2-3,9.5,0,1.8.4,3.4,1.2,4.5Z"/>
    <path class="st1" d="M322.7,50.1l-.2.3c-1.4,2.1-3.4,4.6-4.8,5.7-1.1,1-2.4,1.9-3.8,2.6-1.7.8-3.6,1.4-5.6,1.4s-3.2-.3-4.4-.9c-3.4-1.6-4.9-5-4.9-9.1s.2-3.3.4-4.5h0c.1-.5.1-.8.2-1.2l2.5-11.5h-5.4l1.5-6.9h5.4l2.9-13.3h7.9l-2.9,13.3h9.6l-1.5,6.9h-9.6l-2.5,11.8h0v.2h0c-.3,1.7-.6,3.1-.6,4.4s.2,2,.7,2.6c.4.6,1,.9,1.8.9s1.7-.3,2.7-1c.9-.7,2-1.7,3.2-3,.1,0,.7-.9,1.4-1.7l.5-.7,5.5,3.7Z"/>
    <path class="st0" d="M134.7,25.2c-5.6,0-10.3,2.8-13.6,6.9-3.3,4.1-5.2,9.6-5.2,14.8s2.8,10.6,7.7,12.4c1.4.5,3,.8,4.7.8s3.4-.3,4.9-.8c8.5-2.7,13.8-12.1,13.8-21.1s-1.1-7-3.3-9.4c-2-2.2-5.1-3.6-9-3.6ZM129.2,52.9c-1.9,0-3.2-.7-4-1.8s-1.2-2.7-1.2-4.5c0-3.3,1.1-6.8,3-9.5,1.9-2.7,4.3-4.6,7.1-4.6s3.2.7,4,1.8,1.2,2.7,1.2,4.5c0,3.3-1.1,6.9-3,9.6-1.9,2.6-4.4,4.5-7.1,4.5Z"/>
  </g>
  <g>
    <path class="st3" d="M32.2,14.5c6.8,0,12.3-3.3,12.3-7.3S39,0,32.2,0s-12.4,3.3-12.4,7.3,5.6,7.2,12.4,7.2Z"/>
    <path class="st3" d="M32.2,69.2c6.8,0,12.3-3.3,12.3-7.3s-5.5-7.3-12.3-7.3-12.4,3.4-12.4,7.4,5.6,7.2,12.4,7.2Z"/>
    <path class="st3" d="M15,24.6c3.4-6,3.4-12.4-.1-14.4s-9,1.2-12.4,7.2c-3.4,6-3.4,12.4,0,14.4,3.5,2,9-1.2,12.4-7.2Z"/>
    <path class="st3" d="M61.8,51.9c3.4-6,3.4-12.4,0-14.4-3.4-2-9,1.2-12.4,7.2-3.4,6-3.4,12.4,0,14.4,3.4,2,9-1.2,12.4-7.2Z"/>
    <path class="st3" d="M14.9,59.1c3.4-2,3.4-8.5.1-14.4s-9-9.2-12.4-7.2c-3.4,2-3.4,8.5,0,14.4,3.4,6,9,9.2,12.4,7.2Z"/>
    <path class="st3" d="M61.7,31.7c3.4-2,3.4-8.5,0-14.4-3.4-6-9-9.2-12.4-7.2s-3.4,8.5,0,14.4c3.5,6.1,9,9.2,12.4,7.2Z"/>
  </g>
</svg>