<?xml version="1.0" encoding="utf-8"?>
<!-- Generator: Adobe Illustrator 28.0.0, SVG Export Plug-In . SVG Version: 6.00 Build 0)  -->
<svg version="1.1" id="Layer_1" xmlns="http://www.w3.org/2000/svg" xmlns:xlink="http://www.w3.org/1999/xlink" x="0px" y="0px"
	 viewBox="0 0 490.5 69.2" style="enable-background:new 0 0 490.5 69.2;" xml:space="preserve">
<style type="text/css">
	.st0{fill:#FF2670;}
	.st1{fill:#FFFFFF;}
	.st2{fill-rule:evenodd;clip-rule:evenodd;}
</style>
<g>
	<path d="M459,67.4H343.9c-4.2,0-7.4-3.9-6.5-8l8.2-38.9c2.2-11,11.9-18.8,23.1-18.8h115.1c4.2,0,7.4,3.9,6.5,8l-8.2,38.9
		C479.8,59.6,470.2,67.4,459,67.4z"/>
	<path class="st0" d="M450.6,61.9H346.5c-2,0-3.5-1.8-3.1-3.8l7.6-36.4c1.8-8.5,9.3-14.5,17.9-14.5H473c2,0,3.5,1.8,3.1,3.8
		l-7.6,36.4C466.8,55.8,459.3,61.9,450.6,61.9z"/>
	<g>
		<g>
			<path class="st1" d="M372.5,52.6c-0.1,0-2.7,0-3.1,0c-0.5,0-1.1,0-1.1,0c-2.4-0.1-4.7-1.2-6.1-2.9c-1.5-1.9-2.1-4.3-1.6-6.6
				l4.2-19.7c0.3-1.2,1.3-2,2.5-2c0.2,0,2.4,0,2.5,0.1c1.4,0.3,2.2,1.6,1.9,3l-4.2,19.6c-0.2,0.8,0,1.7,0.6,2.4
				c0.5,0.7,1.4,1.1,2.2,1.1c1.3,0,2.5-0.9,2.8-2.3l5.7-26.8c0.3-1.2,1.3-2,2.5-2c0.2,0,2.5,0,2.7,0.1c1.4,0.3,2.2,1.6,1.9,3
				l-5.7,26.8C379.4,50,376.2,52.6,372.5,52.6z"/>
		</g>
		<g>
			<path class="st1" d="M383.5,52.6c-2.4,0-6.6-1.1-8.2-2.9c-1.5-1.9-2.1-4.3-1.6-6.6l5.2-24.6c0.3-1.2,1.3-2,2.5-2
				c0.2,0,2.4,0,2.5,0.1c1.4,0.3,2.2,1.6,1.9,3l-5.2,24.6c-0.2,0.8,0,1.7,0.6,2.4c0.5,0.7,1.4,1.1,2.2,1.1c1.3,0,2.5-0.9,2.8-2.3
				l5.7-26.8c0.3-1.2,1.3-2,2.5-2c0.2,0,2.4,0,2.5,0.1c1.4,0.3,2.2,1.6,1.9,3l-5.7,26.8c-0.7,3.5-4.2,6-7.7,6.2
				C385.3,52.6,383.6,52.6,383.5,52.6z"/>
		</g>
		<g>
			<path class="st1" d="M406.4,25.5h2.4c1.5,0,2.6,1.4,2.3,2.8l-4.7,22.2c-0.3,1.2-1.3,2-2.5,2c-0.2,0-2.4,0-2.5-0.1
				c-1.4-0.3-2.2-1.6-1.9-3l4.7-22.1C404.3,26.3,405.3,25.5,406.4,25.5z"/>
			<path class="st1" d="M412.9,19.5L412.9,19.5c-0.2,1.1-1.2,1.9-2.3,1.9h-2.4c-1.5,0-2.6-1.4-2.3-2.8v-0.1c0.2-1.2,1.3-2,2.5-2
				c0.2,0,2.4,0,2.5,0.1C412.4,16.8,413.2,18.2,412.9,19.5z"/>
		</g>
		<g>
			<path class="st1" d="M450.5,25.5h2.4c1.5,0,2.6,1.4,2.3,2.8l-4.7,22.2c-0.2,1.2-1.3,2-2.5,2c-0.2,0-2.4,0-2.5-0.1
				c-1.4-0.3-2.2-1.6-1.9-3l4.7-22.1C448.4,26.3,449.4,25.5,450.5,25.5z"/>
			<path class="st1" d="M457.1,19.5L457.1,19.5c-0.2,1.1-1.2,1.9-2.3,1.9h-2.4c-1.5,0-2.6-1.4-2.3-2.8v-0.1c0.3-1.2,1.3-2,2.5-2
				c0.2,0,2.4,0,2.5,0.1C456.5,16.8,457.4,18.2,457.1,19.5z"/>
		</g>
		<g>
			<path class="st1" d="M417.9,52.6c-0.2,0-2.4,0-2.5-0.1c-1.4-0.3-2.2-1.6-1.9-3l6.6-31.1c0.3-1.2,1.3-2,2.5-2c0.2,0,2.4,0,2.5,0.1
				c1.4,0.3,2.2,1.6,1.9,3l-6.6,31.1C420.1,51.8,419,52.6,417.9,52.6z"/>
		</g>
		<g>
			<path class="st1" d="M423.7,34.6c-0.7,0-3.4-0.3-3.9-0.8c-0.9-1-0.9-2.6,0.1-3.6l14.2-13.1c0.5-0.5,1.2-0.7,1.8-0.7
				c0,0,2.2,0,4.6,0c1.3,0,1.9,1.6,1,2.5c-0.8,0.8-1.6,1.5-2,1.9l-14.1,13.1C425,34.4,424.4,34.6,423.7,34.6z"/>
		</g>
		<g>
			<path class="st1" d="M434,52.6c-0.2,0-2.4,0-2.5-0.1c-1.4-0.3-2.2-1.6-1.9-3l2.7-12.6c0.2-0.8-0.2-1.4-0.4-1.7
				c-0.2-0.3-0.7-0.7-1.5-0.7h-8.6c-1.4,0-2.5-1.1-2.5-2.5s1.1-2.5,2.5-2.5h8.6h2c2.1,0,4.8,0.9,6.1,2.6c1.3,1.7,1.2,3.8,0.7,5.9
				l-2.7,12.6C436.2,51.8,435.2,52.6,434,52.6z"/>
		</g>
	</g>
</g>
<g>
	<path class="st2" d="M85,59.4L88,44.9c1.7,0.2,3.9,0.4,7,0.4c7.2,0,13-2,17-5.4c4.1-3.5,6.3-8.4,6.3-14.4c0-4-1.1-7.4-3.1-10
		s-5-4.5-8.7-5.5c-2.1-0.6-4.6-0.9-7.2-0.9c-2.8,0-8.3,0.8-11.6,1.3l-0.2,0L77,59.4L85,59.4L85,59.4z M94.6,38c-1.1,0-2,0-2.9-0.1
		c-0.8,0-1.5-0.1-2.2-0.2L94,16.9c1.4-0.2,3.4-0.5,5.5-0.5c1.3,0,2.4,0.1,3.5,0.3c2,0.4,3.6,1.1,4.8,2.1c1.8,1.6,2.7,3.9,2.7,6.8
		c0,3.7-1.3,6.8-4,9C104,36.8,100,38,94.6,38z"/>
	<path d="M154.7,59.4L165.2,10h-7.9l-10.5,49.4H154.7L154.7,59.4z"/>
	<path class="st2" d="M254.8,27.8l3.8-17.8h7.9l-7,32.4c-0.6,2.8-1.2,6-1.2,7.9c0,0.8,0.1,1.4,0.3,1.8c0.1,0.2,0.2,0.3,0.4,0.4
		c0.1,0.1,0.3,0.1,0.5,0.1c0.3,0,0.7-0.1,1.1-0.4c0.4-0.3,0.9-0.7,1.3-1.2c0.9-1,1.9-2.3,2.7-3.5c0-0.2,0-0.3,0-0.5
		c0-5.3,1.9-10.7,5.2-14.8c3.3-4.1,8-6.9,13.6-6.9c3.9,0,7,1.4,9.1,3.7c2.1,2.3,3.3,5.6,3.3,9.4c0,9-5.4,18.4-13.8,21.1
		c-1.6,0.5-3.2,0.8-4.9,0.8c-1.7,0-3.3-0.3-4.7-0.8c-2.4-0.9-4.3-2.4-5.6-4.5c-1.6,2.1-3.4,3.6-5.5,4.5c-1.2,0.5-2.4,0.8-3.7,0.8
		s-2.4-0.3-3.4-0.8c-2.1-1.1-3.3-3.3-3.4-6.5c-1.8,3-4.2,5.3-7.4,6.5c-1.4,0.5-2.8,0.8-4.4,0.8c-1.5,0-2.9-0.3-4.1-0.8
		c-2.5-1-4.5-3.1-5.6-5.7c-1.7,2.8-3.6,4.7-5.7,5.7c-1.1,0.5-2.3,0.8-3.5,0.8s-2.3-0.3-3.2-0.8c-2-1.1-3.1-3.3-3.3-6
		c-1.7,2.7-3.9,4.9-6.9,6c-1.3,0.5-2.8,0.8-4.4,0.8c-1.5,0-2.9-0.3-4.1-0.8c-1.5-0.6-2.7-1.6-3.7-2.9c-1.6,1.6-3.6,2.8-5.6,3.5
		c-2.3,0.7-4.8,0.7-7.2-0.2c-2.4-1-4.3-2.9-5.5-5.4c-0.6-1.3-1.2-2.8-1.8-4.3c-0.2-0.4-0.3-0.8-0.5-1.2c-0.4-0.9-0.7-1.8-1.1-2.6
		c-0.8,0.2-1.7,0.3-2.5,0.4l-2.8,12.9h-8.2l10.6-49.6h8.2l-5.8,27.5c4.1-1.2,9.8-4.6,13.7-13l7.7,3.7c-3.6,7.8-8.6,12.5-13.5,15.3
		c0.4,0.8,0.7,1.6,1,2.3c0.2,0.5,0.4,1,0.6,1.4c0.6,1.4,1.1,2.7,1.6,3.7c0.5,0.9,1,1.3,1.4,1.5c0.4,0.2,1,0.3,1.8,0
		c1.6-0.5,3.8-2.3,4.8-5.7l0.8-3.4c0.3-2.3,0.9-4.3,1.6-5.8c3.5-7.2,10.4-12.2,18.1-12.2c2.5,0,5.1,0.6,7.4,1.5
		c2.3,0.9,4.2,2.1,5.5,3.4l0.1,0.1l0,0.2c-0.3,1.1-0.5,2.4-0.9,3.8c-0.5,2.3-1.2,5-1.7,7.5c-0.5,2.1-0.9,4-1.2,5.7
		c-0.3,1.7-0.5,3-0.5,3.7c0,0.5,0.1,0.9,0.3,1.2c0.2,0.2,0.4,0.4,0.7,0.4c0.4,0,1-0.3,1.6-0.8c0.6-0.6,1.2-1.4,1.9-2.5
		c1.4-2.2,2.8-5.5,4.4-9.6c2.9-8.8,10.3-14.6,17.7-14.6C250.7,25.2,253.1,26.3,254.8,27.8L254.8,27.8z M214.8,39.5l1.4-6.1
		c-1.4-0.8-2.9-1.4-4.8-1.4c-3.4,0-6.4,1.9-8.6,4.7c-2.1,2.8-3.4,6.6-3.4,10.2c0,1.8,0.4,3.3,1.2,4.3s2,1.6,3.4,1.6
		c2.3,0,4.5-1.2,6.3-3.4C212.3,47.2,213.8,43.8,214.8,39.5L214.8,39.5z M253,35.9l0.4-1.8c-1.4-1.1-3.3-1.9-5.7-1.9
		c-3.3,0-6.1,1.8-8.2,4.6c-2.1,2.8-3.3,6.5-3.3,10.1c0,1.9,0.4,3.4,1.2,4.4c0.8,1,1.9,1.5,3.3,1.5c2.6,0,5.1-1.7,7.3-4.7
		C250.1,45.2,251.9,41,253,35.9L253,35.9z M273.8,51.1c0.8,1.1,2.1,1.8,4,1.8c2.7,0,5.2-1.8,7.1-4.5c1.8-2.7,3-6.2,3-9.6
		c0-1.8-0.4-3.4-1.2-4.5c-0.8-1.1-2.1-1.8-4-1.8c-2.7,0-5.2,1.8-7.1,4.6c-1.8,2.7-3,6.2-3,9.5C272.6,48.4,273,50,273.8,51.1z"/>
	<path d="M322.7,50.1l-0.2,0.3c-1.4,2.1-3.4,4.6-4.8,5.7c-1.1,1-2.4,1.9-3.8,2.6c-1.7,0.8-3.6,1.4-5.6,1.4c-1.7,0-3.2-0.3-4.4-0.9
		c-3.4-1.6-4.9-5-4.9-9.1c0-1.6,0.2-3.3,0.4-4.5l0,0v0c0.1-0.5,0.1-0.8,0.2-1.2l2.5-11.5h-5.4l1.5-6.9h5.4l2.9-13.3h7.9l-2.9,13.3
		h9.6l-1.5,6.9H310l-2.5,11.8c0,0,0,0.1,0,0.1l0,0l0,0c0,0,0,0.1,0,0.1l0,0v0c-0.3,1.7-0.6,3.1-0.6,4.4c0,1.1,0.2,2,0.7,2.6
		c0.4,0.6,1,0.9,1.8,0.9c0.9,0,1.7-0.3,2.7-1c0.9-0.7,2-1.7,3.2-3c0.1-0.1,0.7-0.9,1.4-1.7l0.5-0.7L322.7,50.1z"/>
	<path class="st2" d="M134.7,25.2c-5.6,0-10.3,2.8-13.6,6.9c-3.3,4.1-5.2,9.6-5.2,14.8c0,5.9,2.8,10.6,7.7,12.4
		c1.4,0.5,3,0.8,4.7,0.8c1.7,0,3.4-0.3,4.9-0.8c8.5-2.7,13.8-12.1,13.8-21.1c0-3.8-1.1-7-3.3-9.4C141.7,26.6,138.6,25.2,134.7,25.2z
		 M129.2,52.9c-1.9,0-3.2-0.7-4-1.8c-0.8-1.1-1.2-2.7-1.2-4.5c0-3.3,1.1-6.8,3-9.5s4.3-4.6,7.1-4.6c1.9,0,3.2,0.7,4,1.8
		c0.8,1.1,1.2,2.7,1.2,4.5c0,3.3-1.1,6.9-3,9.6C134.4,51,131.9,52.9,129.2,52.9z"/>
</g>
<g>
	<path class="st0" d="M32.2,14.5c6.8,0,12.3-3.3,12.3-7.3S39,0,32.2,0S19.8,3.3,19.8,7.3S25.4,14.5,32.2,14.5z"/>
	<path class="st0" d="M32.2,69.2c6.8,0,12.3-3.3,12.3-7.3s-5.5-7.3-12.3-7.3S19.8,58,19.8,62C19.8,66,25.4,69.2,32.2,69.2z"/>
	<path class="st0" d="M15,24.6c3.4-6,3.4-12.4-0.1-14.4s-9,1.2-12.4,7.2c-3.4,6-3.4,12.4,0.1,14.4S11.6,30.6,15,24.6z"/>
	<path class="st0" d="M61.8,51.9c3.4-6,3.4-12.4-0.1-14.4c-3.4-2-9,1.2-12.4,7.2c-3.4,6-3.4,12.4,0.1,14.4
		C52.8,61.1,58.4,57.9,61.8,51.9z"/>
	<path class="st0" d="M14.9,59.1c3.4-2,3.4-8.5,0.1-14.4s-9-9.2-12.4-7.2c-3.4,2-3.4,8.5-0.1,14.4C5.9,57.9,11.5,61.1,14.9,59.1z"/>
	<path class="st0" d="M61.7,31.7c3.4-2,3.4-8.5,0.1-14.4c-3.4-6-9-9.2-12.4-7.2s-3.4,8.5-0.1,14.4C52.8,30.6,58.3,33.7,61.7,31.7z"
		/>
</g>
</svg>
